<?xml version="1.0" encoding="utf-8"?>
<!-- Generator: Adobe Illustrator 24.1.0, SVG Export Plug-In . SVG Version: 6.00 Build 0)  -->
<svg version="1.1" id="Layer_1" xmlns="http://www.w3.org/2000/svg" xmlns:xlink="http://www.w3.org/1999/xlink" x="0px" y="0px"
	 viewBox="0 0 608 550.6" style="enable-background:new 0 0 608 550.6;" xml:space="preserve">
<style type="text/css">
	.st0{fill:none;}
	.st1{opacity:0.18;}
	.st2{fill:none;stroke:#77EEDF;stroke-width:2;stroke-miterlimit:10;}
	.st3{opacity:0.2;}
	.st4{fill:none;stroke:#77EEDF;stroke-width:1.9996;stroke-miterlimit:9.998;}
	.st5{fill:url(#SVGID_1_);}
	.st6{fill:url(#SVGID_2_);}
</style>
<pattern  y="550.6" width="184.5" height="184.5" patternUnits="userSpaceOnUse" id="pattern" viewBox="5.5 -222.6 184.5 184.5" style="overflow:visible;">
	<g>
		<rect x="5.5" y="-222.6" class="st0" width="184.5" height="184.5"/>
		
			<image style="overflow:visible;enable-background:new    ;" width="204" height="253" xlink:href="AFA456221D445F40.png"  transform="matrix(0.7287 0 0 -0.7294 0 0)">
		</image>
	</g>
</pattern>
<g id="pt2" transform="translate(-6405.542 -3995.715)">
	<g id="Group_7" transform="translate(6856.899 4053.659) rotate(21)" class="st1">
		
			<rect id="Rectangle_11" x="22.4" y="22.4" transform="matrix(-0.4386 0.8987 -0.8987 -0.4386 207.3766 47.9093)" class="st2" width="132.7" height="132.7"/>
		<line id="Line_1" class="st2" x1="5.8" y1="107.3" x2="125.1" y2="165.5"/>
		<line id="Line_2" class="st2" x1="11.6" y1="95.4" x2="130.9" y2="153.6"/>
		<line id="Line_3" class="st2" x1="17.5" y1="83.5" x2="136.7" y2="141.7"/>
		<line id="Line_4" class="st2" x1="23.3" y1="71.5" x2="142.5" y2="129.8"/>
		<line id="Line_5" class="st2" x1="29.1" y1="59.6" x2="148.3" y2="117.8"/>
		<line id="Line_6" class="st2" x1="34.9" y1="47.7" x2="154.2" y2="105.9"/>
		<line id="Line_7" class="st2" x1="40.7" y1="35.8" x2="160" y2="94"/>
		<line id="Line_8" class="st2" x1="46.6" y1="23.8" x2="165.8" y2="82.1"/>
		<line id="Line_9" class="st2" x1="52.4" y1="11.9" x2="171.6" y2="70.1"/>
		<line id="Line_10" class="st2" x1="167.5" y1="53.4" x2="109.3" y2="172.6"/>
		<line id="Line_11" class="st2" x1="157.6" y1="48.5" x2="99.4" y2="167.7"/>
		<line id="Line_12" class="st2" x1="147.6" y1="43.7" x2="89.4" y2="162.9"/>
		<line id="Line_13" class="st2" x1="137.7" y1="38.8" x2="79.5" y2="158"/>
		<line id="Line_14" class="st2" x1="127.8" y1="34" x2="69.6" y2="153.2"/>
		<line id="Line_15" class="st2" x1="117.8" y1="29.1" x2="59.6" y2="148.3"/>
		<line id="Line_16" class="st2" x1="107.9" y1="24.3" x2="49.7" y2="143.5"/>
		<line id="Line_17" class="st2" x1="98" y1="19.4" x2="39.7" y2="138.6"/>
		<line id="Line_18" class="st2" x1="88" y1="14.6" x2="29.8" y2="133.8"/>
		<line id="Line_19" class="st2" x1="78.1" y1="9.7" x2="19.9" y2="128.9"/>
		<line id="Line_20" class="st2" x1="68.1" y1="4.8" x2="9.9" y2="124.1"/>
	</g>
	<g id="Group_9" transform="translate(6827.979 3996.677) rotate(21)" class="st3">
		
			<rect id="Rectangle_13" x="7.5" y="9.3" transform="matrix(-0.7992 0.6011 -0.6011 -0.7992 70.8542 34.6877)" class="st4" width="44.2" height="39.8"/>
		<line id="Line_28" class="st2" x1="15.9" y1="47.8" x2="51.3" y2="21.2"/>
		<line id="Line_29" class="st2" x1="8" y1="37.2" x2="43.3" y2="10.6"/>
		<line id="Line_30" class="st2" x1="0" y1="26.6" x2="35.4" y2="0"/>
		<line id="Line_31" class="st2" x1="35.4" y1="0" x2="59.3" y2="31.8"/>
		<line id="Line_32" class="st2" x1="26.8" y1="6.2" x2="50.4" y2="38.5"/>
		<line id="Line_33" class="st2" x1="17.9" y1="12.8" x2="41.6" y2="45.1"/>
		<line id="Line_34" class="st2" x1="9.1" y1="19.5" x2="32.8" y2="51.8"/>
	</g>
	<pattern  id="SVGID_1_" xlink:href="#pattern" patternTransform="matrix(0.1908 0.9816 0.9816 -0.1908 2596.9202 -2038.6057)">
	</pattern>
	<path class="st5" d="M6648.3,4507.7c-6,0-12-0.6-18-2.1c-13.3-3.3-25.3-10.4-36.1-18.8c-0.9-0.7-1.8-1.5-2.7-2.2
		c-0.9,3.1-5.2,5.4-8.5,2.6c-1.1-0.9-2.1-1.9-3.2-2.8c-7.3-4-13.3-9.8-18.8-16.2c-3-3.5,0.2-9.5,4.2-8.7
		c-5.3-5.6-10.5-11.2-15.9-16.6c-4.4-3.6-8.7-7.3-12.2-11.6c-0.3-0.4-0.6-0.8-0.8-1.2c-11.1-4.5-21.4-11.3-32.3-16.3
		c-0.6-0.3-1.2-0.6-1.9-0.9c-4.3,0.3-8.7,0.6-13,0.7c-3.2,0.3-6.3,0.7-9.5,1.1c-0.6,0.1-1.2,0-1.6-0.1c-1,0.3-2,0.6-3,0.9
		c-0.6,0.2-1.1,0.2-1.7,0.2c0.1,1,0.2,1.9,0.2,2.8c0.4,6.4-9.6,6.4-10,0c-0.1-1.7-0.1-4.1-0.5-6.5c-2.1-1.2-3-4.4-2-6.5
		c-0.6-0.9-1.3-1.7-2.2-2.1c-1.9,0-3.9,0.2-5.8,0.3c-4.5,2.5-7.1,9.7-7.5,14.1c-0.1,1.6-0.9,2.8-1.9,3.6l24.3,124.8l181.1-35.2
		L6648.3,4507.7z"/>
	<pattern  id="SVGID_2_" xlink:href="#pattern" patternTransform="matrix(0.1908 0.9816 0.9816 -0.1908 2596.9202 -2038.6057)">
	</pattern>
	<path class="st6" d="M6485,4396.1c1.7-1.3,3.3-2.6,5-4c4.7-3.9,11.3,2.1,7.5,6.6c6-1.2,12-1.9,18-1.5c15.5,1.1,28.3,9.9,39.6,19.9
		c4.1,3.6-0.4,9.2-4.9,8.4c-1.5-0.3-2.9-0.6-4.4-1c0.2,0.5,0.4,1,0.4,1.6c3.5,3.2,6.9,6.5,10.3,9.9c5.9,4.7,12.1,9.1,17.5,14.1
		c5.9,5.4,11.6,11.6,14.6,18.8c8.5,7.9,17.6,15,27.9,20.6c9.6,5.1,19.5,7.6,29.8,7.9l-25.7-132.3l-148.3,28.8
		C6476.6,4394.5,6480.8,4395.2,6485,4396.1z"/>
</g>
</svg>
